<?xml version="1.0" standalone="no"?>
<!DOCTYPE svg PUBLIC "-//W3C//DTD SVG 1.1//EN" "http://www.w3.org/Graphics/SVG/1.1/DTD/svg11.dtd" >
<svg xmlns="http://www.w3.org/2000/svg" xmlns:xlink="http://www.w3.org/1999/xlink" version="1.1">
<metadata>
Created by FontForge 20170731 at Sat Dec 24 18:21:41 2022
 By Aleksey,,,
Copyright 2021 Garismantra
</metadata>
<defs>
<font id="JareneRegular" horiz-adv-x="1091" >
  <font-face 
    font-family="Jarene"
    font-weight="500"
    font-stretch="normal"
    units-per-em="2048"
    panose-1="0 0 0 0 0 0 0 0 0 0"
    ascent="1638"
    descent="-410"
    x-height="1225"
    cap-height="1230"
    bbox="0 -118 1319 1639"
    underline-thickness="102"
    underline-position="-307"
    unicode-range="U+000D-00A0"
  />
<missing-glyph horiz-adv-x="1331" 
 />
    <glyph glyph-name=".notdef" horiz-adv-x="1331" 
 />
    <glyph glyph-name=".notdef" horiz-adv-x="1331" 
 />
    <glyph glyph-name=".null" horiz-adv-x="0" 
 />
    <glyph glyph-name="nonmarkingreturn" horiz-adv-x="682" 
 />
    <glyph glyph-name="controlCR" unicode="&#xd;" horiz-adv-x="618" 
 />
    <glyph glyph-name="space" unicode=" " horiz-adv-x="618" 
 />
    <glyph glyph-name="exclam" unicode="!" horiz-adv-x="372" 
d="M270 267v-267h-270l47 267h223zM270 344h-267v813l267 72v-885z" />
    <glyph glyph-name="quotedbl" unicode="&#x22;" horiz-adv-x="718" 
d="M350 1181l267 47v-583l-267 71v465zM0 1181l267 47v-583l-267 71v465z" />
    <glyph glyph-name="numbersign" unicode="#" horiz-adv-x="1214" 
d="M607 615l16 118h-119l-15 -118h118zM185 348h-185l47 267h173l15 118h-195l47 266h183l36 268l261 -58l-28 -210h119l23 178l262 -58l-16 -120h185l-23 -266h-197l-16 -118h197l-24 -267h-208l-35 -269l-259 81l25 188h-118l-24 -179l-258 81z" />
    <glyph glyph-name="dollar" unicode="$" horiz-adv-x="1038" 
d="M5 396l-5 17l257 68l5 -15q15 -54 49 -73q17 -10 44 -10h264q21 0 24 5q1 1 0.5 4t-1.5 4q-1 3 -12 19q-5 7 -17 19l-434 434l44 36h-206l47 267h267l70 174l247 -100l-30 -74q58 0 83 -1t67.5 -13.5t72.5 -39.5q28 -25 46.5 -66.5t24 -69.5t13.5 -81l2 -15l-251 -67
l-5 14q-12 30 -31 46q-18 15 -54 21q-14 2 -46 4q-3 0 -9 0.5t-10 0.5l313 -313q87 -87 96 -202q8 -109 -56 -187q-71 -86 -187 -86h-67l-70 -173l-247 100l30 74q-122 7 -208 81.5t-120 197.5z" />
    <glyph glyph-name="ampersand" unicode="&#x26;" 
d="M644 314v210h-357q-8 0 -14 -6.5t-6 -14.5v-113q0 -46 30.5 -81t76.5 -41q5 -1 16 -1h207q19 0 33 14t14 33zM802 76q-88 -76 -205 -76h-207q-17 0 -25 1q-153 10 -259 122.5t-106 266.5v219q0 68 44.5 119t110.5 61q-124 167 -87 295q21 74 99 121q18 11 39 17
q35 12 85 17q53 5 125 5h527l47 -267h-574q-26 0 -38 -3q-13 -3 -15 -8q-4 -7 18 -34q100 -117 282 -138q76 -9 231 -5q50 2 76 2h17v-267h-76v-210q0 -68 -28.5 -130.5t-80.5 -107.5z" />
    <glyph glyph-name="quotesingle" unicode="'" horiz-adv-x="368" 
d="M0 1181l267 47v-583l-267 71v465z" />
    <glyph glyph-name="parenleft" unicode="(" horiz-adv-x="626" 
d="M0 536v567q0 198 129 349.5t324 183.5l16 3l55 -261l-28 -5q-98 -17 -163.5 -93.5t-65.5 -176.5v-567q0 -100 65.5 -176.5t163.5 -93.5l28 -5l-55 -261l-16 3q-195 32 -324 183.5t-129 349.5z" />
    <glyph glyph-name="parenright" unicode=")" horiz-adv-x="626" 
d="M0 261l28 5q98 17 164 93.5t66 176.5v567q0 100 -66 176.5t-164 93.5l-28 5l55 261l16 -3q195 -32 324 -183.5t129 -349.5v-567q0 -198 -129 -349.5t-324 -183.5l-16 -3z" />
    <glyph glyph-name="asterisk" unicode="*" horiz-adv-x="856" 
d="M201 890l-201 116l119 206l18 -10l121 -70v137l238 21v-158l139 80l119 -206l-200 -116l139 -139l-169 -168l-14 14l-133 133l-135 -136l-12 -11l-168 168z" />
    <glyph glyph-name="plus" unicode="+" horiz-adv-x="1054" 
d="M0 480l23 266h319v297l267 47v-344h343l-47 -266h-296v-341h-267v341h-342z" />
    <glyph glyph-name="comma" unicode="," horiz-adv-x="491" 
d="M164 270l5 10h220v-16q0 -314 -318 -366l-15 -3l-56 262l18 2q49 5 88.5 35t57.5 76z" />
    <glyph glyph-name="hyphen" unicode="-" horiz-adv-x="993" 
d="M23 718h867l-47 -266h-843z" />
    <glyph glyph-name="period" unicode="." horiz-adv-x="372" 
d="M47 267h223v-267h-270z" />
    <glyph glyph-name="slash" unicode="/" horiz-adv-x="845" 
d="M496 1327l247 -100l-496 -1227l-247 100l97 237h-1z" />
    <glyph glyph-name="zero" unicode="0" horiz-adv-x="1148" 
d="M656 270q50 0 86.5 36.5t36.5 86.5v520q0 19 -14 33t-33 14h-386v-644q0 -19 14 -32.5t33 -13.5h263zM656 3h-263q-129 0 -221.5 92t-92.5 221v576l81 68h-160l47 266h685q129 0 221.5 -92t92.5 -221v-74v-3v-443q0 -161 -115 -275.5t-275 -114.5z" />
    <glyph glyph-name="one" unicode="1" horiz-adv-x="368" 
d="M0 1160l267 71v-1228h-267v1157z" />
    <glyph glyph-name="two" unicode="2" horiz-adv-x="1056" 
d="M633 908q9 9 17 20q8 12 11 19q1 1 2 4t0 4q-3 5 -25 5h-264q-26 0 -43 -10q-34 -19 -49 -73l-5 -16l-257 69l4 16q36 128 127.5 204t222.5 76h333q117 0 187 -85q64 -78 56 -187q-9 -115 -96 -202l-483 -483h581l-47 -266h-905l23 266h139l-91 77z" />
    <glyph glyph-name="three" unicode="3" horiz-adv-x="1032" 
d="M74 770h79q28 -1 56 0q214 7 331 145q22 27 18 33q-2 5 -16 8q-16 4 -37 4h-505l47 266h458q99 0 156 -9q58 -9 93 -29q78 -47 99 -121q37 -129 -87 -296q85 -10 123.5 -77t28.5 -160q-20 -191 -148.5 -334.5t-315.5 -183.5q-36 -8 -95 -12q-54 -3 -106 -3q-32 0 -96 1
t-96 1h-14l-47 267h20q30 0 88 -2q68 -2 102 -2q90 0 108 1q61 4 88 11q71 17 127.5 63.5t89.5 112.5q17 33 8 43q-3 4 -10.5 6t-18 2.5t-19 1t-19.5 0t-13 -0.5h-431z" />
    <glyph glyph-name="four" unicode="4" horiz-adv-x="1089" 
d="M0 1147v13l267 71v-84q0 -124 59 -202q81 -109 263 -127q54 -3 55 -3v411h267v-412h76v-266h-77l1 -151v-72q0 -125 -65.5 -232t-176.5 -164q-63 -32 -131 -43l-15 -2l-56 262l18 2q67 7 113 58t46 119v72l-1 151q-136 2 -252.5 42.5t-204 114.5t-137 187.5t-49.5 254.5z
" />
    <glyph glyph-name="five" unicode="5" 
d="M94 508l-15 2v381l81 69h-160l47 266h818l-47 -266h-472v-220q328 -71 468 -251q51 -66 69.5 -137t3.5 -132t-54.5 -110.5t-107.5 -78t-151 -28.5h-527l-47 266h574q29 0 42 4q9 3 10 7q1 3 -2 12q-8 18 -21 34q-111 143 -509 182z" />
    <glyph glyph-name="six" unicode="6" horiz-adv-x="1034" 
d="M346 269h228q22 0 38 4q13 3 15 7t-6 19q-41 53 -104.5 91t-133.5 55q-24 6 -37 8v-184zM79 778q0 26 3 53q18 146 121 253.5t248 131.5q50 10 108 10h284l47 -266h-331q-12 0 -36 -2v-1l-18 -2q-49 -4 -90 -36q-60 -46 -68 -123q-1 -6 -1 -18v-57q49 -4 101 -17
q135 -32 249.5 -113t179.5 -196q34 -61 47 -118q14 -65 -1 -115q-21 -74 -99 -121q-35 -20 -93 -29q-57 -9 -156 -9h-527l-47 266h160l-81 68v441z" />
    <glyph glyph-name="seven" unicode="7" horiz-adv-x="1011" 
d="M562 959h-103h-16q-63 0 -103 -6q-36 -6 -54 -20q-17 -15 -30 -46l-6 -14l-250 67l2 15q8 53 13.5 81t24 69.5t46.5 66.5q11 10 23 17.5t26 13.5t24 10t27 6.5t25.5 4t28.5 2t26.5 0.5h29h27.5h540l47 -267h-120l51 -20l-416 -1029l-247 100z" />
    <glyph glyph-name="eight" unicode="8" 
d="M644 782v140q0 29 -12 37q-20 13 -67 -8q-43 -17 -105 -64q-13 -10 -37 -30q-34 -30 -49 -48q-11 -11 -11 -20q4 -4 10 -4q15 -3 34 -3h237zM287 516q-8 0 -14 -6.5t-6 -14.5v-113q0 -46 30.5 -81.5t76.5 -41.5q5 -1 16 -1h207q19 0 33 14t14 33v211h-357zM0 601
q0 80 61 135q1 68 40 147q11 21 13 25q64 113 179 195l1 1q143 94 277 116q139 23 228 -38q91 -62 108 -194q4 -29 4 -66v-140h32l47 -266h-79v-211q0 -142 -109 -237q-88 -76 -205 -76h-207q-17 0 -25 1q-153 10 -259 122.5t-106 266.5v219z" />
    <glyph glyph-name="nine" unicode="9" horiz-adv-x="1034" 
d="M549 783q12 -3 38 -7v184h-228q-22 0 -38 -4q-13 -3 -15 -8q-2 -3 6 -18q42 -53 105 -91.5t132 -55.5zM56 834q-35 61 -47 117q-13 63 2 116q21 74 99 121q35 20 92 29t157 9h526l47 -266h-160l81 -68v-567q0 -27 -3 -54q-18 -146 -121 -253.5t-248 -131.5l-16 -2
l-56 262l19 2q48 4 89 36q61 47 69 123q1 6 1 18v183q-55 5 -101 16q-135 32 -250 113.5t-180 196.5z" />
    <glyph glyph-name="colon" unicode=":" horiz-adv-x="372" 
d="M47 267h223v-267h-270zM0 724l47 266h223v-266h-270z" />
    <glyph glyph-name="semicolon" unicode=";" horiz-adv-x="520" 
d="M0 147l18 2q49 5 88.5 34.5t57.5 75.5l5 11h220v-17q0 -314 -318 -366l-15 -3zM119 727l47 267h223v-267h-270z" />
    <glyph glyph-name="equal" unicode="=" horiz-adv-x="1032" 
d="M890 468l-23 -267h-867l47 267h843zM87 852h843l-23 -267h-867z" />
    <glyph glyph-name="question" unicode="?" 
d="M346 0h-270l47 267h223v-267zM79 344v372l15 2q397 39 509 183q14 17 21 33q3 9 2 12q-1 4 -11 7q-13 4 -41 4h-574l47 267h527q104 0 181.5 -44.5t111.5 -113.5t22.5 -158t-75.5 -171q-139 -179 -468 -250v-143h-267z" />
    <glyph glyph-name="A" unicode="A" horiz-adv-x="1239" 
d="M778 272l-193 184l-264 -277l193 -184zM568 816l-321 -795l-247 100l318 786h-218l23 267h303l70 174l247 -100l-30 -74h339l-47 -267h-186l318 -786l-247 -100z" />
    <glyph glyph-name="B" unicode="B" 
d="M609 913q22 27 18 34q-2 5 -15 8q-12 3 -38 3h-228v-184q91 16 149 45t114 94zM79 505h-76v266h76v187h-79l47 267h527q99 0 156 -9q56 -9 93 -30q78 -47 99 -121q37 -129 -87 -296q66 -10 110.5 -60.5t44.5 -118.5v-323q0 -118 -65 -189t-182 -90q-85 -14 -182.5 0
t-179.5 50l-15 7l100 248l16 -7q42 -19 103 -31q54 -11 92 -10q36 0 45 14q1 2 1 8v217q0 8 -6 14.5t-14 6.5h-357v-190q0 -129 -92.5 -221.5t-221.5 -92.5h-29v267h29q19 0 33 14t14 33v190z" />
    <glyph glyph-name="C" unicode="C" horiz-adv-x="1101" 
d="M79 591v299l81 68h-160l47 267h953l-47 -267h-607v-367q0 -133 95 -228t228 -95h331l-47 -267h-284q-159 0 -295 79.5t-215.5 215.5t-79.5 295z" />
    <glyph glyph-name="D" unicode="D" horiz-adv-x="1148" 
d="M444 269v-1h12q134 0 228.5 95t94.5 228v367h-335v-1h-98v-688h98zM3 268h157l-81 68v622h-79l47 267h999v-634q0 -159 -79.5 -295t-215.5 -215.5t-295 -79.5h-453v267z" />
    <glyph glyph-name="E" unicode="E" horiz-adv-x="1054" 
d="M166 574h-120l47 267h73v117h-166l23 267h929l-47 -267h-472v-117h519l-47 -267h-472v-183q0 -50 36.5 -86.5t86.5 -36.5h396l-47 -267h-349q-160 0 -275 114.5t-115 275.5v183z" />
    <glyph glyph-name="F" unicode="F" horiz-adv-x="1015" 
d="M78 890l81 68h-159l23 267h891l-47 -267h-523v-245l31 58l440 -94l-47 -263l-424 91v-513l-266 -71v969z" />
    <glyph glyph-name="G" unicode="G" horiz-adv-x="1148" 
d="M79 890l81 68h-160l47 267h953l-47 -267h-607v-643q0 -19 14 -33t33 -14h386v216q0 8 -6.5 14.5t-14.5 6.5h-214l24 266h296q75 0 128.5 -53t53.5 -128v-598l-267 -71v172l-109 -91h-277q-129 0 -221.5 92t-92.5 221v575z" />
    <glyph glyph-name="H" unicode="H" horiz-adv-x="1189" 
d="M47 853h73v372h267v-372h359l74 -89v461h267v-910q0 -129 -92.5 -221.5t-221.5 -92.5h-29v267h29q19 0 33 14t14 33v271h-433v-585h-267v585h-120z" />
    <glyph glyph-name="I" unicode="I" horiz-adv-x="368" 
d="M0 1158l267 72v-1229h-267v1157z" />
    <glyph glyph-name="J" unicode="J" horiz-adv-x="593" 
d="M226 890l81 68h-307l23 267h470v-902q0 -163 -106 -287.5t-267 -150.5l-16 -3l-55 263l18 2q68 8 113.5 58.5t45.5 117.5v567z" />
    <glyph glyph-name="K" unicode="K" horiz-adv-x="1089" 
d="M0 771h76v387l267 72v-465q84 18 140.5 41.5t95 55.5t60 82t32 109.5t14.5 149.5v6l1 16h267l-2 -27q-7 -150 -32 -251q-1 -4 -3 -11.5t-3 -11.5q-27 -92 -68 -157q61 -14 101.5 -63.5t40.5 -113.5v-598l-267 -71v563q0 8 -6.5 14.5t-14.5 6.5h-356v-190q0 -19 14 -33
t33 -14h29v-267h-29q-129 0 -221.5 92.5t-92.5 221.5v190h-76v266z" />
    <glyph glyph-name="L" unicode="L" horiz-adv-x="968" 
d="M25 268h75v86h-100l47 267h53v604h266v-604h185l-23 -267h-162v-86h500l-47 -267h-817z" />
    <glyph glyph-name="M" unicode="M" horiz-adv-x="1378" 
d="M418 785l-157 -787l-261 52l234 1178l262 -52l-47 -236l106 89l11 -11q47 -47 81 -92l60 302l261 -52l-47 -236l106 89l11 -11q207 -202 231 -500q10 -124 -9 -260q-15 -107 -51 -244l-4 -13h-303l-24 267h114q14 97 14.5 183.5t-28.5 173.5t-88 159l-156 -783h-304
l-23 267h113q14 97 14.5 184t-28.5 174t-88 159z" />
    <glyph glyph-name="N" unicode="N" horiz-adv-x="1069" 
d="M0 1225h267v-200l69 83l11 -4q207 -70 353 -195v316h266v-910q0 -129 -92 -221.5t-221 -92.5h-29v267h29q19 0 33 14t14 33v21q0 208 -153 352q-109 103 -280 162v-849h-267v1224z" />
    <glyph glyph-name="O" unicode="O" horiz-adv-x="1148" 
d="M79 890l81 68h-160l47 267h999v-833q0 -161 -114.5 -275.5t-275.5 -114.5h-263q-129 0 -221.5 92t-92.5 221v575zM779 958h-433v-643q0 -19 14 -33t33 -14h263q50 0 86.5 37t36.5 87v566z" />
    <glyph glyph-name="P" unicode="P" horiz-adv-x="1034" 
d="M383 782q70 17 133.5 55t104.5 91q8 16 6 19q-2 5 -15 8q-12 3 -38 3h-228v-183q23 4 37 7zM79 890l81 68h-160l47 267h527q99 0 156 -9q56 -9 93 -30q78 -47 99 -121q15 -50 1 -115q-12 -56 -47 -117q-65 -116 -180 -197t-249 -113q-52 -13 -101 -17v-191q0 -19 14 -33
t33 -14h29v-267h-29q-129 0 -221.5 92.5t-92.5 221.5v575z" />
    <glyph glyph-name="Q" unicode="Q" horiz-adv-x="1144" 
d="M602 269h98v642q0 19 -14 33t-33 14h-386v-367q0 -133 94.5 -228t228.5 -95h12v1zM0 591v634h653q129 0 221 -92.5t92 -221.5v-74v-2v-499l-81 -68h158v-267h-453q-159 0 -295 79.5t-215.5 215.5t-79.5 295z" />
    <glyph glyph-name="R" unicode="R" 
d="M609 913q22 27 18 34q-2 5 -15 8q-12 3 -38 3h-228v-184q91 16 149 45t114 94zM79 315v575l81 68h-160l47 267h527q99 0 156 -9q56 -9 93 -30q78 -47 99 -121q37 -129 -87 -296q66 -10 110.5 -60.5t44.5 -118.5v-598l-267 -71v563q0 8 -6 14.5t-14 6.5h-357v-190
q0 -19 14 -33t33 -14h29v-267h-29q-129 0 -221.5 92.5t-92.5 221.5z" />
    <glyph glyph-name="S" unicode="S" horiz-adv-x="1038" 
d="M6 281l-5 16l257 69l5 -15q15 -54 49 -73q18 -10 44 -10h264q22 0 24 5q1 1 0.5 4t-1.5 4q-1 3 -12 19q-5 7 -17 19l-562 562l91 77h-143l47 267h540h27.5h29t26.5 -0.5t28.5 -2t25.5 -4t27 -6.5t24 -10t26 -13.5t23 -17.5q28 -25 46.5 -66.5t24 -70t13.5 -81.5l2 -14
l-250 -67l-6 13q-14 33 -30 47q-19 16 -65 22q-1 0 -56 3q-25 1 -77 1h-6h-27h-41l483 -483q87 -87 96 -201q8 -110 -56 -188q-70 -85 -187 -85h-332q-131 0 -222.5 76t-127.5 204z" />
    <glyph glyph-name="T" unicode="T" horiz-adv-x="1054" 
d="M316 890l81 68h-397l23 267h929l-47 -267h-323v-635q0 -67 45.5 -117.5t113.5 -58.5l19 -2l-56 -263l-16 3q-161 26 -266.5 150.5t-105.5 287.5v567z" />
    <glyph glyph-name="U" unicode="U" horiz-adv-x="1144" 
d="M76 1225h267v-956h97v-1h13q133 0 228 95t95 228v567l267 72v-639q0 -159 -79.5 -295t-215.5 -215.5t-295 -79.5h-453v267h157l-81 68v889z" />
    <glyph glyph-name="V" unicode="V" horiz-adv-x="1239" 
d="M890 1230l247 -100l-496 -1227l-247 100l96 237l-108 -56l-382 946l247 100l321 -795z" />
    <glyph glyph-name="W" unicode="W" horiz-adv-x="1378" 
d="M0 1176l261 52l157 -787q59 72 88 159t28.5 174t-14.5 184h-113l23 267h304l156 -783q59 72 88 159t28.5 173.5t-14.5 183.5h-114l24 267h303l4 -13q36 -137 51 -244q19 -136 9 -260q-24 -298 -231 -500l-11 -11l-106 89l47 -236l-261 -52l-60 302q-34 -45 -81 -92
l-11 -11l-106 90l47 -237l-262 -52z" />
    <glyph glyph-name="X" unicode="X" horiz-adv-x="1421" 
d="M740 1010l141 -226l15 10q154 103 408 168l15 4l-47 263l-17 -5q-302 -75 -501 -205zM404 574q1 2 5 6.5t5 6.5q59 80 67 155q6 53 -16 99q-27 53 -88 84q-69 33 -164 33h-32l47 267l14 -1q165 -7 287 -78q117 -69 175 -186q72 -147 29 -315q-12 -46 -19 -69
q-26 -85 -32 -123q-10 -64 5 -99q18 -40 69 -61q62 -25 175 -25h262l-47 -266h-215q-379 0 -487 243q-158 -118 -379 -192l-18 -6l-47 265l13 5q266 97 391 257z" />
    <glyph glyph-name="Y" unicode="Y" horiz-adv-x="1099" 
d="M10 968v190l267 72v-261q0 -133 94.5 -228t228.5 -95h12h42v579h267v-579h76v-267h-116q-82 -214 -257 -302q-110 -54 -266 -68q-88 -8 -297 -8h-14l-47 267h61h55q125 0 161 2q121 6 192 30q18 6 36 15q48 25 77 64q-155 5 -286.5 85t-208.5 214t-77 290z" />
    <glyph glyph-name="Z" unicode="Z" horiz-adv-x="1079" 
d="M102 476l482 482h-520l23 267h891l-47 -267h-138l92 -76l-562 -562q-9 -9 -17 -20q-11 -16 -12 -19q-1 -1 -2 -4t0 -4q2 -5 25 -5h264q27 0 44 10q34 19 49 73l4 16l258 -69l-5 -17q-36 -128 -127.5 -203.5t-222.5 -75.5h-332q-118 0 -188 85q-64 78 -56 187
q9 114 97 202z" />
    <glyph glyph-name="a" unicode="a" horiz-adv-x="1239" 
d="M778 272l-193 184l-264 -277l193 -184zM568 816l-321 -795l-247 100l318 786h-218l23 267h303l70 174l247 -100l-30 -74h339l-47 -267h-186l318 -786l-247 -100z" />
    <glyph glyph-name="b" unicode="b" 
d="M609 913q22 27 18 34q-2 5 -15 8q-12 3 -38 3h-228v-184q91 16 149 45t114 94zM79 505h-76v266h76v187h-79l47 267h527q99 0 156 -9q56 -9 93 -30q78 -47 99 -121q37 -129 -87 -296q66 -10 110.5 -60.5t44.5 -118.5v-323q0 -118 -65 -189t-182 -90q-85 -14 -182.5 0
t-179.5 50l-15 7l100 248l16 -7q42 -19 103 -31q54 -11 92 -10q36 0 45 14q1 2 1 8v217q0 8 -6 14.5t-14 6.5h-357v-190q0 -129 -92.5 -221.5t-221.5 -92.5h-29v267h29q19 0 33 14t14 33v190z" />
    <glyph glyph-name="c" unicode="c" horiz-adv-x="1101" 
d="M79 591v299l81 68h-160l47 267h953l-47 -267h-607v-367q0 -133 95 -228t228 -95h331l-47 -267h-284q-159 0 -295 79.5t-215.5 215.5t-79.5 295z" />
    <glyph glyph-name="d" unicode="d" horiz-adv-x="1148" 
d="M444 269v-1h12q134 0 228.5 95t94.5 228v367h-335v-1h-98v-688h98zM3 268h157l-81 68v622h-79l47 267h999v-634q0 -159 -79.5 -295t-215.5 -215.5t-295 -79.5h-453v267z" />
    <glyph glyph-name="e" unicode="e" horiz-adv-x="1054" 
d="M166 574h-120l47 267h73v117h-166l23 267h929l-47 -267h-472v-117h519l-47 -267h-472v-183q0 -50 36.5 -86.5t86.5 -36.5h396l-47 -267h-349q-160 0 -275 114.5t-115 275.5v183z" />
    <glyph glyph-name="f" unicode="f" horiz-adv-x="1015" 
d="M78 890l81 68h-159l23 267h891l-47 -267h-523v-245l31 58l440 -94l-47 -263l-424 91v-513l-266 -71v969z" />
    <glyph glyph-name="g" unicode="g" horiz-adv-x="1148" 
d="M79 890l81 68h-160l47 267h953l-47 -267h-607v-643q0 -19 14 -33t33 -14h386v216q0 8 -6.5 14.5t-14.5 6.5h-214l24 266h296q75 0 128.5 -53t53.5 -128v-598l-267 -71v172l-109 -91h-277q-129 0 -221.5 92t-92.5 221v575z" />
    <glyph glyph-name="h" unicode="h" horiz-adv-x="1189" 
d="M47 853h73v372h267v-372h359l74 -89v461h267v-910q0 -129 -92.5 -221.5t-221.5 -92.5h-29v267h29q19 0 33 14t14 33v271h-433v-585h-267v585h-120z" />
    <glyph glyph-name="i" unicode="i" horiz-adv-x="368" 
d="M0 1158l267 72v-1229h-267v1157z" />
    <glyph glyph-name="j" unicode="j" horiz-adv-x="593" 
d="M226 890l81 68h-307l23 267h470v-902q0 -163 -106 -287.5t-267 -150.5l-16 -3l-55 263l18 2q68 8 113.5 58.5t45.5 117.5v567z" />
    <glyph glyph-name="k" unicode="k" horiz-adv-x="1089" 
d="M0 771h76v387l267 72v-465q84 18 140.5 41.5t95 55.5t60 82t32 109.5t14.5 149.5v6l1 16h267l-2 -27q-7 -150 -32 -251q-1 -4 -3 -11.5t-3 -11.5q-27 -92 -68 -157q61 -14 101.5 -63.5t40.5 -113.5v-598l-267 -71v563q0 8 -6.5 14.5t-14.5 6.5h-356v-190q0 -19 14 -33
t33 -14h29v-267h-29q-129 0 -221.5 92.5t-92.5 221.5v190h-76v266z" />
    <glyph glyph-name="l" unicode="l" horiz-adv-x="968" 
d="M25 268h75v86h-100l47 267h53v604h266v-604h185l-23 -267h-162v-86h500l-47 -267h-817z" />
    <glyph glyph-name="m" unicode="m" horiz-adv-x="1378" 
d="M418 785l-157 -787l-261 52l234 1178l262 -52l-47 -236l106 89l11 -11q47 -47 81 -92l60 302l261 -52l-47 -236l106 89l11 -11q207 -202 231 -500q10 -124 -9 -260q-15 -107 -51 -244l-4 -13h-303l-24 267h114q14 97 14.5 183.5t-28.5 173.5t-88 159l-156 -783h-304
l-23 267h113q14 97 14.5 184t-28.5 174t-88 159z" />
    <glyph glyph-name="n" unicode="n" horiz-adv-x="1069" 
d="M0 1225h267v-200l69 83l11 -4q207 -70 353 -195v316h266v-910q0 -129 -92 -221.5t-221 -92.5h-29v267h29q19 0 33 14t14 33v21q0 208 -153 352q-109 103 -280 162v-849h-267v1224z" />
    <glyph glyph-name="o" unicode="o" horiz-adv-x="1148" 
d="M79 890l81 68h-160l47 267h999v-833q0 -161 -114.5 -275.5t-275.5 -114.5h-263q-129 0 -221.5 92t-92.5 221v575zM779 958h-433v-643q0 -19 14 -33t33 -14h263q50 0 86.5 37t36.5 87v566z" />
    <glyph glyph-name="p" unicode="p" horiz-adv-x="1034" 
d="M383 782q70 17 133.5 55t104.5 91q8 16 6 19q-2 5 -15 8q-12 3 -38 3h-228v-183q23 4 37 7zM79 890l81 68h-160l47 267h527q99 0 156 -9q56 -9 93 -30q78 -47 99 -121q15 -50 1 -115q-12 -56 -47 -117q-65 -116 -180 -197t-249 -113q-52 -13 -101 -17v-191q0 -19 14 -33
t33 -14h29v-267h-29q-129 0 -221.5 92.5t-92.5 221.5v575z" />
    <glyph glyph-name="q" unicode="q" horiz-adv-x="1144" 
d="M602 269h98v642q0 19 -14 33t-33 14h-386v-367q0 -133 94.5 -228t228.5 -95h12v1zM0 591v634h653q129 0 221 -92.5t92 -221.5v-74v-2v-499l-81 -68h158v-267h-453q-159 0 -295 79.5t-215.5 215.5t-79.5 295z" />
    <glyph glyph-name="r" unicode="r" 
d="M609 913q22 27 18 34q-2 5 -15 8q-12 3 -38 3h-228v-184q91 16 149 45t114 94zM79 315v575l81 68h-160l47 267h527q99 0 156 -9q56 -9 93 -30q78 -47 99 -121q37 -129 -87 -296q66 -10 110.5 -60.5t44.5 -118.5v-598l-267 -71v563q0 8 -6 14.5t-14 6.5h-357v-190
q0 -19 14 -33t33 -14h29v-267h-29q-129 0 -221.5 92.5t-92.5 221.5z" />
    <glyph glyph-name="s" unicode="s" horiz-adv-x="1038" 
d="M6 281l-5 16l257 69l5 -15q15 -54 49 -73q18 -10 44 -10h264q22 0 24 5q1 1 0.5 4t-1.5 4q-1 3 -12 19q-5 7 -17 19l-562 562l91 77h-143l47 267h540h27.5h29t26.5 -0.5t28.5 -2t25.5 -4t27 -6.5t24 -10t26 -13.5t23 -17.5q28 -25 46.5 -66.5t24 -70t13.5 -81.5l2 -14
l-250 -67l-6 13q-14 33 -30 47q-19 16 -65 22q-1 0 -56 3q-25 1 -77 1h-6h-27h-41l483 -483q87 -87 96 -201q8 -110 -56 -188q-70 -85 -187 -85h-332q-131 0 -222.5 76t-127.5 204z" />
    <glyph glyph-name="t" unicode="t" horiz-adv-x="1054" 
d="M316 890l81 68h-397l23 267h929l-47 -267h-323v-635q0 -67 45.5 -117.5t113.5 -58.5l19 -2l-56 -263l-16 3q-161 26 -266.5 150.5t-105.5 287.5v567z" />
    <glyph glyph-name="u" unicode="u" horiz-adv-x="1144" 
d="M76 1225h267v-956h97v-1h13q133 0 228 95t95 228v567l267 72v-639q0 -159 -79.5 -295t-215.5 -215.5t-295 -79.5h-453v267h157l-81 68v889z" />
    <glyph glyph-name="v" unicode="v" horiz-adv-x="1239" 
d="M890 1230l247 -100l-496 -1227l-247 100l96 237l-108 -56l-382 946l247 100l321 -795z" />
    <glyph glyph-name="w" unicode="w" horiz-adv-x="1378" 
d="M0 1176l261 52l157 -787q59 72 88 159t28.5 174t-14.5 184h-113l23 267h304l156 -783q59 72 88 159t28.5 173.5t-14.5 183.5h-114l24 267h303l4 -13q36 -137 51 -244q19 -136 9 -260q-24 -298 -231 -500l-11 -11l-106 89l47 -236l-261 -52l-60 302q-34 -45 -81 -92
l-11 -11l-106 90l47 -237l-262 -52z" />
    <glyph glyph-name="x" unicode="x" horiz-adv-x="1421" 
d="M740 1010l141 -226l15 10q154 103 408 168l15 4l-47 263l-17 -5q-302 -75 -501 -205zM404 574q1 2 5 6.5t5 6.5q59 80 67 155q6 53 -16 99q-27 53 -88 84q-69 33 -164 33h-32l47 267l14 -1q165 -7 287 -78q117 -69 175 -186q72 -147 29 -315q-12 -46 -19 -69
q-26 -85 -32 -123q-10 -64 5 -99q18 -40 69 -61q62 -25 175 -25h262l-47 -266h-215q-379 0 -487 243q-158 -118 -379 -192l-18 -6l-47 265l13 5q266 97 391 257z" />
    <glyph glyph-name="y" unicode="y" horiz-adv-x="1099" 
d="M10 968v190l267 72v-261q0 -133 94.5 -228t228.5 -95h12h42v579h267v-579h76v-267h-116q-82 -214 -257 -302q-110 -54 -266 -68q-88 -8 -297 -8h-14l-47 267h61h55q125 0 161 2q121 6 192 30q18 6 36 15q48 25 77 64q-155 5 -286.5 85t-208.5 214t-77 290z" />
    <glyph glyph-name="z" unicode="z" horiz-adv-x="1079" 
d="M102 476l482 482h-520l23 267h891l-47 -267h-138l92 -76l-562 -562q-9 -9 -17 -20q-11 -16 -12 -19q-1 -1 -2 -4t0 -4q2 -5 25 -5h264q27 0 44 10q34 19 49 73l4 16l258 -69l-5 -17q-36 -128 -127.5 -203.5t-222.5 -75.5h-332q-118 0 -188 85q-64 78 -56 187
q9 114 97 202z" />
    <glyph glyph-name="nonbreakingspace" unicode="&#xa0;" horiz-adv-x="618" 
 />
  </font>
</defs>
</svg>
